<?xml version="1.0" encoding="utf-8"?>
<!-- Generator: Adobe Illustrator 25.4.1, SVG Export Plug-In . SVG Version: 6.00 Build 0)  -->
<svg version="1.1" id="Layer_1" xmlns="http://www.w3.org/2000/svg" xmlns:xlink="http://www.w3.org/1999/xlink" x="0px" y="0px"
	 viewBox="0 0 200 200" style="enable-background:new 0 0 200 200;" xml:space="preserve">
<style type="text/css">
	.st0{fill:#2E426A;}
	.st1{fill:#FCE48C;}
	.st2{fill:#FDC323;}
	.st3{fill:#EA9807;}
	.st4{fill:#FFFFFF;}
	.st5{fill:#EB5D29;}
	.st6{fill:#A6E0F6;}
	.st7{fill:#5CB4E2;}
	.st8{fill:#F3F3F3;}
	.st9{fill:#1C243E;}
	.st10{fill:#FAC1AC;}
	.st11{fill:#FB9D6E;}
	.st12{fill:#7DDBCB;}
	.st13{fill:#71BEA7;}
	.st14{fill:#549080;}
	.st15{fill:#195240;}
</style>
<path class="st0" d="M154.7,196.6h-13.6c-1.2,0-2.2-1-2.2-2.2s1-2.2,2.2-2.2h13.7c8.3,0,15.2-6.8,15.1-15
	c-0.1-8.1-6.7-14.5-14.8-14.5h-34.5c-6.9,0-12.8-5.4-13-12.3c-0.2-7,5.3-12.9,12.3-13.1c0.1,0,0.2,0,0.4,0h11
	c6.4,0,11.6-5.2,11.6-11.6c0,0,0,0,0,0v-12.1h4.3v12.1c0,8.8-7.1,15.9-15.9,15.9c0,0,0,0,0,0h-10.8c-4.5,0-8.4,3.5-8.6,8.1
	c-0.2,4.6,3.4,8.5,8.1,8.7c0.1,0,0.2,0,0.3,0H155c10.4,0,18.9,8.4,19.1,18.8C174.4,187.9,165.4,196.6,154.7,196.6L154.7,196.6z
	 M131.3,194.4c0,1.2-1,2.2-2.2,2.2H67c-10.8,0-19.5-8.8-19.6-19.6h4.3c0,8.4,6.8,15.2,15.2,15.2h62.2
	C130.4,192.3,131.3,193.3,131.3,194.4z"/>
<path class="st1" d="M98.7,12.4h88.7V114H98.7V12.4z"/>
<path class="st2" d="M104.5,12.4h82.9V114h-82.9V12.4z"/>
<path class="st2" d="M98.7,98.3h88.7V114H98.7V98.3z"/>
<path class="st3" d="M104.7,98.3h82.6V114h-82.6V98.3z"/>
<path class="st1" d="M177.6,104h-55.3c-1.2,0-2.2,1-2.2,2.2c0,1.2,1,2.2,2.2,2.2h55.3c1.2,0,2.2-1,2.2-2.2
	C179.7,105,178.8,104,177.6,104z M111.6,104h-3.1c-1.2,0-2.2,1-2.2,2.2c0,1.2,1,2.2,2.2,2.2h3.1c1.2,0,2.2-1,2.2-2.2
	C113.8,105,112.8,104,111.6,104z"/>
<path class="st3" d="M155.7,83c0,2.9-2.3,5.2-5.2,5.2s-5.2-2.3-5.2-5.2s2.3-5.2,5.2-5.2S155.7,80.1,155.7,83z M174.7,83
	c0,2.9-2.3,5.2-5.2,5.2c-2.9,0-5.2-2.3-5.2-5.2s2.3-5.2,5.2-5.2C172.3,77.8,174.7,80.1,174.7,83z"/>
<path class="st4" d="M157.6,83c0,2.9-2.3,5.2-5.2,5.2c-2.9,0-5.2-2.3-5.2-5.2s2.3-5.2,5.2-5.2C155.3,77.8,157.6,80.1,157.6,83z
	 M176.5,83c0,2.9-2.3,5.2-5.2,5.2s-5.2-2.3-5.2-5.2s2.3-5.2,5.2-5.2S176.5,80.1,176.5,83z"/>
<path class="st5" d="M157.6,83c0,2.5-1.8,4.6-4.1,5.1c-2.8-0.6-4.6-3.4-4-6.2c0.4-2,2-3.6,4-4C155.9,78.4,157.6,80.5,157.6,83
	L157.6,83z M176.5,83c0,2.5-1.8,4.6-4.1,5.1c-2.8-0.6-4.6-3.4-4-6.2c0.4-2,2-3.6,4-4C174.8,78.4,176.5,80.5,176.5,83L176.5,83z"/>
<path class="st6" d="M129.4,26.1h45v40.4h-45V26.1z"/>
<path class="st7" d="M135,26.4h39.4v40.4H135L135,26.4z"/>
<path class="st8" d="M176.5,23.9h-49.3v44.8h49.3V23.9z M172.2,64.3h-40.6V28.2h40.6V64.3z"/>
<path class="st9" d="M142.8,32.4h4.3V44h-4.3V32.4z M149.9,32.4h4.3V44h-4.3V32.4z M150.7,53.4h4.9v7.3h4.3V49.1h-9.2V53.4z
	 M162.7,49.1h4.3v11.6h-4.3V49.1z M167.1,32.4H157V44h10.1V32.4z M162.7,39.7h-1.4v-3h1.4V39.7z M138.3,54.2h8.9v4.3h-8.9V54.2z"/>
<path class="st1" d="M120.9,36h-11c-1.2,0-2.2,1-2.2,2.2c0,1.2,1,2.2,2.2,2.2h11c1.2,0,2.2-1,2.2-2.2C123.1,37,122.1,36,120.9,36
	L120.9,36z M120.9,53.8h-11c-1.2,0-2.2,1-2.2,2.2s1,2.2,2.2,2.2h11c1.2,0,2.2-1,2.2-2.2S122.1,53.8,120.9,53.8L120.9,53.8z
	 M134.8,76.9h-24.9c-1.2,0-2.2,1-2.2,2.2s1,2.2,2.2,2.2h24.9c1.2,0,2.2-1,2.2-2.2S136,76.9,134.8,76.9z M134.8,83.8h-24.9
	c-1.2,0-2.2,1-2.2,2.2s1,2.2,2.2,2.2h24.9c1.2,0,2.2-1,2.2-2.2S136,83.8,134.8,83.8z"/>
<path class="st10" d="M67.7,34.5c3.3,1,5.5,4,5.5,7.4v25.9c0,3.3-1.1,6.3-2.9,8.7c-2.7,3.7-4.3,8.1-4.3,12.7v23.6H31.2V97.5
	c0-8.6-3.7-16.6-10-22.5c-5.4-5.1-8.5-12.2-8.5-19.6V39.6c0-1.9,0.6-3.8,1.6-5.2C14.4,34.3,67.7,34.5,67.7,34.5z"/>
<path class="st5" d="M67.7,34.3v5.4c0,3.7-3,6.7-6.7,6.7c0,0,0,0,0,0c-3.4,0-6.3-2.6-6.6-5.9c-0.4,3.7-3.6,6.3-7.3,6
	c-3.2-0.3-5.7-2.8-6-6c-0.3,3.5-3.2,6.1-6.7,6.1c-3.5,0-6.4-2.7-6.7-6.1c-0.3,3.4-3.2,6-6.6,6c-3.7,0-6.7-3-6.7-6.7c0,0,0,0,0,0
	v-5.4C14.3,38,17.3,41,21,41.1c3.5,0.1,6.5-2.6,6.8-6.1c0.3,3.7,3.6,6.4,7.3,6.1c3.2-0.3,5.8-2.9,6.1-6.1c0.4,3.7,3.7,6.3,7.3,6
	c3.1-0.3,5.6-2.8,5.9-5.9c0.4,3.7,3.7,6.3,7.4,5.9c0.3,0,0.6-0.1,0.9-0.2C65.6,40,67.7,37.4,67.7,34.3z"/>
<path class="st11" d="M67.7,16v18.5c0,3.7-3,6.7-6.7,6.7c0,0,0,0,0,0c-3.7,0-6.7-3-6.7-6.7c0,0,0,0,0,0V16c0-3.7,3-6.7,6.7-6.7
	C64.7,9.3,67.7,12.3,67.7,16L67.7,16z"/>
<path class="st11" d="M54.4,10.4v24.2c0,3.7-3,6.7-6.7,6.7c0,0,0,0,0,0c-3.7,0-6.7-3-6.7-6.7V10.4c0-3.7,3-6.7,6.7-6.7
	C51.4,3.7,54.4,6.7,54.4,10.4z"/>
<path class="st11" d="M41.1,10.3v24.3c0,3.7-3,6.7-6.7,6.7c0,0,0,0,0,0c-3.7,0-6.7-3-6.7-6.7c0,0,0,0,0,0V10.3
	c-0.1-3.7,2.8-6.8,6.5-6.9C38,3.3,41,6.2,41.1,9.9C41.1,10,41.1,10.2,41.1,10.3z"/>
<path class="st11" d="M27.8,16v18.5c0,3.7-3,6.7-6.7,6.7c0,0,0,0,0,0c-3.7,0-6.7-3-6.7-6.7c0,0,0,0,0,0V16c0-3.7,3-6.7,6.7-6.7
	C24.8,9.3,27.8,12.3,27.8,16L27.8,16z"/>
<path class="st10" d="M67.7,16v18.5c0,3.1-2.1,5.7-5,6.5c-3-0.7-5-3.4-5-6.5V16c0-3.1,2.1-5.7,5-6.5C65.6,10.3,67.7,12.9,67.7,16
	L67.7,16z M54.4,10.4v24.2c0,3.1-2.1,5.7-5,6.5c-3-0.7-5-3.4-5-6.5V10.4c0-3.1,2.1-5.8,5-6.5C52.3,4.6,54.4,7.3,54.4,10.4L54.4,10.4
	z M41.1,10.3v24.3c0,3.1-2.2,5.8-5.1,6.5c-3-0.7-5.1-3.4-5.1-6.5V10.3c0-3.1,2.2-5.8,5.1-6.5C39,4.5,41.1,7.2,41.1,10.3z M27.8,16
	v18.5c0,3.1-2.1,5.7-5,6.5c-3-0.7-5-3.4-5-6.5V16c0-3.1,2.1-5.7,5-6.5C25.7,10.3,27.8,12.9,27.8,16z"/>
<path class="st11" d="M23.6,47.8C36.9,49.2,47,60.4,47,73.8v0.5c1.5,0,2.6-1.3,2.5-2.7c-1.4-14.7-13.7-26-28.4-26.2
	C21.2,46.7,22.3,47.7,23.6,47.8L23.6,47.8z"/>
<path class="st10" d="M47,73.8c0-13.3-10.1-24.5-23.4-25.9c-1.5-0.2-2.7-1.4-2.7-2.9v-0.1c0-1.6,1.3-2.9,3-2.9h11.1
	c4.8,0,8.6-3.8,8.6-8.6c0,0,0,0,0,0v0c0-1.6-1.3-3-3-3H21.9c-5.1,0-9.2,4.1-9.2,9.2l0,0v15.9c0,7.5,3.1,14.7,8.7,19.7
	c0.6,0.5,1.1,1.1,1.7,1.6l0,0c5.2,5.6,8.1,13,8.1,20.6v15.2H47V73.8L47,73.8z"/>
<path class="st11" d="M43.7,33.3c0,4.8-3.9,8.6-8.6,8.6c0,0,0,0,0,0H23.9c-1.6,0-2.9,1.3-3,2.9c0-3.2,2.6-5.9,5.9-5.9h11.1
	C41.1,39,43.6,36.4,43.7,33.3L43.7,33.3z M65.9,101.2H43c0-5.7-3.1-11-8-13.9c-4.5-2.6-8.5-6.6-10.7-9c4.4,5.4,6.8,12.2,6.8,19.2
	v15.2H43v-7.1h23V101.2z"/>
<path class="st12" d="M24.5,170.8v6.7h50.2v-71.9H24.5v6.7"/>
<path class="st13" d="M31.2,170.8v6.7h43.4v-71.9H31.2v6.7"/>
<path class="st13" d="M19.7,112.3h36.6v58.5H19.7V112.3z"/>
<path class="st14" d="M24.5,112.3h31.8v58.5H24.5V112.3z"/>
<path class="st15" d="M53.1,112.3h3.2v58.5h-3.2V112.3z"/>
<path class="st4" d="M67.5,148.4c1.2,0,2.2-1,2.2-2.2v-31.8c0-1.2-1-2.2-2.2-2.2s-2.2,1-2.2,2.2v31.8
	C65.4,147.5,66.3,148.4,67.5,148.4z M67.5,161c1.2,0,2.2-1,2.2-2.2v-2.2c0-1.2-1-2.2-2.2-2.2s-2.2,1-2.2,2.2v2.2
	C65.4,160,66.3,161,67.5,161z"/>
<path class="st14" d="M24.5,174.4h6.7v3.1h-6.7V174.4z"/>
<path class="st15" d="M31.2,174.4h43.4v3.1H31.2V174.4z"/>
<path class="st6" d="M24.5,105.6h6.7v3.1h-6.7V105.6z"/>
<path class="st12" d="M31.2,105.6h43.4v3.1H31.2V105.6z"/>
</svg>
