<?xml version="1.0" encoding="utf-8"?>
<!-- Generator: Adobe Illustrator 25.4.1, SVG Export Plug-In . SVG Version: 6.00 Build 0)  -->
<svg version="1.1" id="Layer_1" xmlns="http://www.w3.org/2000/svg" xmlns:xlink="http://www.w3.org/1999/xlink" x="0px" y="0px"
	 viewBox="0 0 200 200" style="enable-background:new 0 0 200 200;" xml:space="preserve">
<style type="text/css">
	.st0{fill:#F6B577;}
	.st1{fill:none;stroke:#0572E4;stroke-width:1.218;stroke-linecap:round;stroke-linejoin:round;}
	.st2{fill:#62355C;}
</style>
<g>
	<path class="st0" d="M72.9,23c12.6,0,22.9,10.2,23,22.8c0,0.1,0,0.2,0,0.3v108c0,11.5-8.5,21.2-20,22.8
		c-9.8,1.3-19.2-3.8-23.6-12.6c0.5-0.1,1-0.2,1.6-0.3c5.3-1.4,3.2-9.4-2.1-8c-7.8,2.1-16-0.1-21.8-5.6c-4.4-4.2-6.9-10-7-16.1
		c2,1,4.1,1.8,6.3,2.4c5.5,1.7,7.7-6.7,2.1-8c-15.8-4.2-25.3-20.5-21-36.3c1.3-4.9,3.8-9.3,7.3-13c1.5,3.2,3.5,6.2,6.1,8.8
		c3.9,4,9.9-2,5.8-5.8c-8.9-9-8.9-23.5,0-32.4c3.3-3.3,7.6-5.6,12.3-6.4c-0.1,0.8-0.2,1.5-0.2,2.3c0,5.5,8.3,5.5,8.3,0
		C49.9,33.3,60.1,23,72.8,23C72.8,23,72.9,23,72.9,23L72.9,23z M127.1,23c12.6,0,22.9,10.2,23,22.8c0,0,0,0.1,0,0.1
		c0,5.5,8.3,5.5,8.3,0c0-0.8-0.2-1.5-0.2-2.3c12.5,2.1,20.8,14,18.7,26.5c-0.8,4.7-3,8.9-6.4,12.3c-3.9,3.9,2,9.7,5.8,5.8
		c2.6-2.6,4.6-5.6,6.1-8.8c11.4,11.8,11.1,30.5-0.7,41.9c-3.6,3.5-8.1,6-13,7.3c-5.6,1.2-3.3,9.7,2.1,8c2.2-0.6,4.3-1.4,6.3-2.4
		c-0.1,6.1-2.6,11.9-7,16.1c-5.8,5.5-14.1,7.7-21.8,5.6c-5.3-1.4-7.5,6.5-2.1,8c0.5,0.1,1,0.2,1.6,0.3c-4.3,8.8-13.8,13.9-23.6,12.6
		c-11.5-1.5-20.1-11.4-20-23V45.9c0-12.6,10.2-22.9,22.8-22.9C127,23,127,23,127.1,23L127.1,23z"/>
	<path class="st1" d="M100,45.9v108.2"/>
	<path class="st2" d="M72.9,14.7c-13.4,0-24.8,8.6-29.2,20.5c-11.8,0.8-22.1,8.1-26.7,19c-2.2,5.3-2.8,11-2,16.5
		C4.2,79.5-0.9,93.6,1.8,107.3c1.7,8.7,6.4,16.5,13.2,22c-1.5,9.9,2,20,9.2,27c5.4,5.1,12.3,8.1,19.6,8.6c5,13.6,18.8,22,33.2,20.1
		c9.7-1.3,18.2-7.1,23-15.6c4.8,8.5,13.3,14.3,23,15.6c14.4,1.9,28.2-6.5,33.2-20.1c7.3-0.5,14.2-3.5,19.6-8.6c7.2-7,10.7-17,9.2-27
		c6.8-5.6,11.5-13.4,13.2-22c2.7-13.7-2.4-27.8-13.2-36.6c0.9-5.6,0.2-11.3-2-16.5c-4.6-10.9-14.9-18.2-26.7-19
		c-4.4-11.9-15.8-20.5-29.2-20.5c-11.7,0-21.7,6.5-27.1,16C94.6,21.2,84.6,14.7,72.9,14.7z M72.9,23c12.6,0,22.9,10.2,23,22.8
		c0,0,0,0.1,0,0.1c0,0.1,0,0.1,0,0.2v107.8c0,0.1,0,0.2,0,0.3c0,11.5-8.5,21.2-20,22.8c-9.8,1.3-19.2-3.8-23.6-12.6
		c0.5-0.1,1-0.2,1.6-0.3c2.2-0.6,3.5-2.9,2.9-5.1c-0.6-2.2-2.9-3.5-5.1-2.9l0,0c-7.8,2.1-16-0.1-21.8-5.6c-4.4-4.2-6.9-10-7-16.1
		c2,1,4.1,1.8,6.3,2.4c2.2,0.7,4.5-0.5,5.2-2.7c0.7-2.2-0.5-4.5-2.7-5.2c-0.1,0-0.2-0.1-0.4-0.1c-15.8-4.2-25.3-20.5-21-36.3
		c1.3-4.9,3.8-9.3,7.3-13c1.5,3.2,3.5,6.2,6.1,8.8c1.6,1.6,4.2,1.6,5.8,0c1.6-1.6,1.6-4.2,0-5.8c-8.9-9-8.9-23.5,0-32.4
		c3.3-3.3,7.6-5.6,12.3-6.4c-0.1,0.8-0.2,1.5-0.2,2.3c0,2.3,1.9,4.1,4.1,4.1c2.3,0,4.1-1.8,4.1-4.1C49.9,33.3,60.1,23,72.8,23
		C72.8,23,72.9,23,72.9,23L72.9,23z M127.1,23c12.6,0,22.9,10.2,23,22.8c0,0,0,0.1,0,0.1c0,2.3,1.9,4.1,4.1,4.1
		c2.3,0,4.1-1.8,4.1-4.1c0-0.8-0.2-1.5-0.2-2.3c12.5,2.1,20.8,14,18.7,26.5c-0.8,4.7-3,8.9-6.4,12.3c-1.6,1.6-1.6,4.2,0,5.8
		c1.6,1.6,4.2,1.6,5.8,0l0,0c2.6-2.6,4.6-5.6,6.1-8.8c11.4,11.8,11.1,30.5-0.7,41.9c-3.6,3.5-8.1,6-13,7.3c-2.2,0.5-3.6,2.7-3.2,4.9
		c0.5,2.2,2.7,3.6,4.9,3.2c0.1,0,0.3-0.1,0.4-0.1c2.2-0.6,4.3-1.4,6.3-2.4c-0.1,6.1-2.6,11.9-7,16.1c-5.8,5.5-14.1,7.7-21.8,5.6
		c-2.2-0.6-4.5,0.7-5.1,2.9s0.7,4.5,2.9,5.1c0.5,0.1,1,0.2,1.6,0.3c-4.3,8.8-13.8,13.9-23.6,12.6c-11.4-1.5-20-11.2-20-22.8
		c0-0.1,0-0.2,0-0.3V45.9c0-12.6,10.2-22.9,22.8-22.9C127,23,127,23,127.1,23L127.1,23z M72.5,28.3c-2.3,0.2-3.9,2.2-3.7,4.5
		c0.2,2.1,2,3.8,4.2,3.8c5.3,0,9.4,4.2,9.4,9.4c0,2.3,1.8,4.1,4.1,4.1s4.1-1.8,4.1-4.1c0-9.7-7.9-17.6-17.7-17.6
		C72.8,28.3,72.6,28.3,72.5,28.3z M127.1,28.3c-9.7,0-17.6,7.9-17.7,17.6c0,2.3,1.8,4.1,4.1,4.1c2.3,0,4.1-1.8,4.1-4.1
		c0-5.2,4.2-9.4,9.4-9.4c2.3,0.1,4.2-1.7,4.3-3.9c0.1-2.3-1.7-4.2-3.9-4.3C127.3,28.3,127.2,28.3,127.1,28.3z M47.8,54.3
		c-2.3,0-4.1,1.8-4.2,4.1c0,0.5,0.1,0.9,0.2,1.4c0.6,1.7,1.3,3.3,2.1,4.9c-3.5-0.4-7-0.3-10.4,0.3c-2.3,0.3-3.8,2.4-3.5,4.7
		c0.3,2.3,2.4,3.8,4.7,3.5c0.1,0,0.2,0,0.3-0.1c7-1.3,14.1,0,20.2,3.5c0.1,0,0.2,0.1,0.3,0.1c0.1,0,0.2,0.1,0.3,0.1
		c0.1,0,0.2,0.1,0.3,0.1c0,0,0.1,0,0.1,0c0.1,0,0.1,0,0.2,0c0.1,0,0.1,0,0.2,0c0,0,0.1,0,0.1,0c0.2,0,0.5,0.1,0.7,0.1
		c0,0,0.1,0,0.1,0c0.1,0,0.2,0,0.3,0c0,0,0.1,0,0.1,0c0,0,0.1,0,0.1,0c0.1,0,0.2,0,0.3,0c0.1,0,0.2,0,0.3-0.1c0,0,0.1,0,0.1,0
		c0.3-0.1,0.7-0.3,1-0.5c0,0,0.1-0.1,0.1-0.1c0.2-0.1,0.4-0.3,0.5-0.5c0,0,0.1-0.1,0.1-0.1c1.1-1.2,1.4-3,0.7-4.5c0,0,0-0.1,0-0.1
		c-0.4-0.7-0.9-1.3-1.6-1.7l0,0c0,0,0,0,0,0c-4.6-2.8-8-7.2-9.7-12.3C51.1,55.4,49.6,54.3,47.8,54.3L47.8,54.3z M152.2,54.3
		c-1.8,0-3.3,1.1-3.9,2.8c-1.7,5.1-5.2,9.5-9.8,12.3c-0.7,0.4-1.2,1-1.6,1.7c0,0,0,0.1,0,0.1c-0.7,1.5-0.4,3.3,0.7,4.5
		c0,0,0.1,0.1,0.1,0.1c0.2,0.2,0.3,0.3,0.5,0.4c0,0,0.1,0.1,0.1,0.1c0.3,0.2,0.7,0.4,1,0.5c0,0,0.1,0,0.1,0c0.1,0,0.2,0,0.3,0.1
		c0.1,0,0.2,0,0.3,0c0,0,0.1,0,0.1,0c0,0,0.1,0,0.1,0c0.1,0,0.2,0,0.3,0c0,0,0.1,0,0.1,0c0.1,0,0.2,0,0.3,0c0,0,0,0,0,0
		c0.1,0,0.3,0,0.4,0c0,0,0.1,0,0.1,0c0.1,0,0.2,0,0.3-0.1c0,0,0.1,0,0.1,0c0,0,0,0,0.1,0c0.1,0,0.2-0.1,0.3-0.1
		c0.1,0,0.2-0.1,0.3-0.1c0.1,0,0.2-0.1,0.2-0.1C148.9,73,156,71.7,163,73c2.2,0.5,4.4-0.8,5-3c0.5-2.2-0.8-4.4-3-5
		c-0.2,0-0.3-0.1-0.5-0.1c-3.5-0.6-7-0.7-10.5-0.3c0.8-1.5,1.5-3.2,2.1-4.9c0.7-2.2-0.5-4.5-2.6-5.2
		C153.1,54.4,152.6,54.3,152.2,54.3L152.2,54.3z M76.3,67.1c-2.3,0.1-4.1,2-4,4.3c0,0.7,0.2,1.4,0.6,1.9c4.4,7.7,3.2,17.4-3.1,23.6
		c-1.6,1.6-1.6,4.2,0,5.8c1.6,1.6,4.2,1.6,5.8,0l0,0c8.9-8.9,10.7-22.6,4.4-33.5C79.3,67.9,77.9,67,76.3,67.1z M123.3,67.1
		c-1.4,0.1-2.7,0.9-3.3,2.1c-6.3,10.9-4.5,24.6,4.4,33.5c1.6,1.6,4.2,1.6,5.8,0s1.6-4.2,0-5.8l0,0c-6.3-6.2-7.6-15.9-3.1-23.6
		c1.2-2,0.5-4.5-1.5-5.6c-0.6-0.3-1.3-0.5-1.9-0.6C123.5,67.1,123.4,67.1,123.3,67.1z M19.2,98.6c-2.3,0.2-4,2.1-3.8,4.4
		c0,0.3,0.1,0.6,0.1,0.8c1.3,4.7,3.7,9,7.2,12.5c1.6,1.6,4.2,1.7,5.8,0.1c1.6-1.6,1.7-4.2,0.1-5.8c0,0-0.1-0.1-0.1-0.1
		c-2.4-2.4-4.2-5.4-5.1-8.8c-0.5-1.8-2.1-3.1-3.9-3.1C19.5,98.6,19.4,98.6,19.2,98.6L19.2,98.6z M180.4,98.6c-1.9,0-3.4,1.3-3.9,3.1
		c-0.9,3.3-2.6,6.3-5.1,8.8c-1.6,1.6-1.7,4.2-0.1,5.8c1.6,1.6,4.2,1.7,5.8,0.1c0,0,0.1-0.1,0.1-0.1c3.5-3.5,5.9-7.7,7.2-12.5
		c0.6-2.2-0.7-4.5-2.9-5.1C181.2,98.6,180.8,98.6,180.4,98.6C180.4,98.6,180.4,98.6,180.4,98.6L180.4,98.6z M66.2,129.7
		c-0.2,0-0.5,0-0.7,0.1c0,0,0,0,0,0c0,0-0.1,0-0.1,0c-0.1,0-0.2,0-0.3,0.1c0,0-0.1,0-0.1,0c-0.2,0.1-0.5,0.2-0.7,0.3
		c0,0-0.1,0-0.1,0c-0.1,0-0.1,0.1-0.2,0.1c-6.1,3.5-13.3,4.8-20.3,3.5c-2.2-0.4-4.4,1.1-4.8,3.3c-0.4,2.2,1.1,4.4,3.3,4.8l0,0
		c3.5,0.6,7,0.7,10.5,0.3c-0.8,1.5-1.6,3.2-2.1,4.8c-0.6,2.2,0.6,4.5,2.8,5.1c2.1,0.6,4.3-0.5,5-2.5c1.7-5.1,5.1-9.4,9.7-12.3
		c0,0,0,0,0.1,0c0,0,0,0,0,0c0.1-0.1,0.2-0.1,0.3-0.2c0,0,0.1,0,0.1-0.1c0.1-0.1,0.2-0.1,0.2-0.2c0,0,0.1,0,0.1-0.1
		c0.1-0.1,0.1-0.1,0.2-0.2c0,0,0.1-0.1,0.1-0.1c0.1-0.1,0.1-0.2,0.2-0.2c0,0,0-0.1,0.1-0.1c0.1-0.1,0.1-0.2,0.2-0.2c0,0,0-0.1,0-0.1
		c0.1-0.1,0.1-0.2,0.1-0.3c0,0,0-0.1,0-0.1c0,0,0,0,0,0c0.1-0.1,0.1-0.2,0.1-0.4c0-0.1,0.1-0.2,0.1-0.3c0,0,0-0.1,0-0.1
		c0-0.1,0-0.2,0.1-0.3c0,0,0-0.1,0-0.1c0-0.1,0-0.2,0-0.3c0-0.3,0-0.6-0.1-0.9c0-0.1,0-0.2,0-0.3c-0.1-0.3-0.2-0.6-0.3-0.9
		c0-0.1-0.1-0.2-0.1-0.3c0,0,0-0.1-0.1-0.1c-0.1-0.1-0.1-0.2-0.2-0.2c0,0-0.1-0.1-0.1-0.1c-0.1-0.1-0.1-0.2-0.2-0.2
		c0,0-0.1-0.1-0.1-0.1c-0.1-0.1-0.1-0.1-0.2-0.2c0,0-0.1,0-0.1-0.1c-0.1-0.1-0.2-0.1-0.2-0.2c0,0-0.1,0-0.1-0.1
		c-0.2-0.1-0.4-0.3-0.6-0.4c0,0-0.1,0-0.1,0c-0.1,0-0.2-0.1-0.3-0.1c0,0-0.1,0-0.1,0c0,0-0.1,0-0.1,0c-0.1,0-0.2-0.1-0.3-0.1
		c-0.1,0-0.2,0-0.3,0c0,0-0.1,0-0.1,0c0,0,0,0,0,0C66.5,129.7,66.4,129.7,66.2,129.7C66.2,129.7,66.2,129.7,66.2,129.7L66.2,129.7z
		 M133.7,129.7c-0.1,0-0.2,0-0.3,0c-0.1,0-0.3,0-0.4,0.1c-0.1,0-0.2,0.1-0.3,0.1c0,0-0.1,0-0.1,0c0,0-0.1,0-0.1,0
		c-0.1,0-0.1,0.1-0.2,0.1c0,0-0.1,0-0.1,0c-0.2,0.1-0.4,0.2-0.6,0.4c0,0-0.1,0-0.1,0.1c-0.1,0.1-0.2,0.1-0.2,0.2c0,0-0.1,0-0.1,0.1
		c-0.1,0.1-0.1,0.1-0.2,0.2c-0.1,0.1-0.2,0.2-0.2,0.3c0,0,0,0,0,0c0,0,0,0.1-0.1,0.1c-0.1,0.1-0.1,0.2-0.2,0.2c0,0,0,0.1-0.1,0.1
		c-0.1,0.1-0.1,0.2-0.1,0.3c-0.1,0.3-0.2,0.6-0.3,0.9c0,0.1,0,0.2,0,0.3c-0.1,0.4-0.1,0.7,0,1.1c0,0.1,0,0.1,0,0.2c0,0,0,0.1,0,0.1
		c0,0.1,0,0.2,0,0.2c0,0,0,0.1,0,0.1c0,0.1,0.1,0.2,0.1,0.3c0,0.1,0.1,0.2,0.1,0.4c0,0,0,0.1,0,0.1c0,0,0,0.1,0.1,0.1
		c0,0.1,0.1,0.1,0.1,0.2c0,0.1,0.1,0.1,0.1,0.2c0,0,0.1,0.1,0.1,0.1c0,0,0,0.1,0.1,0.1c0.1,0.1,0.1,0.2,0.2,0.2c0,0,0.1,0.1,0.1,0.1
		c0.1,0.1,0.1,0.1,0.2,0.2c0,0,0.1,0,0.1,0.1c0.1,0.1,0.2,0.1,0.2,0.2c0,0,0.1,0,0.1,0.1c0.1,0.1,0.2,0.1,0.3,0.2c0,0,0.1,0,0.1,0.1
		c4.6,2.8,8,7.2,9.7,12.3c0.9,2.1,3.3,3.1,5.4,2.3c1.9-0.8,3-2.9,2.4-4.9c-0.6-1.7-1.3-3.3-2.1-4.8c3.5,0.4,7,0.3,10.4-0.3
		c2.2-0.4,3.7-2.6,3.3-4.8c-0.4-2.2-2.6-3.7-4.8-3.3c-7,1.3-14.1,0-20.2-3.5c-0.1,0-0.2-0.1-0.2-0.1c-0.2-0.1-0.4-0.2-0.7-0.3
		c0,0-0.1,0-0.1,0c-0.1,0-0.2,0-0.3-0.1c0,0-0.1,0-0.1,0c0,0,0,0,0,0c-0.1,0-0.3,0-0.4,0C134,129.7,133.9,129.7,133.7,129.7
		L133.7,129.7z M86.4,149.9c-2.3,0-4.1,1.9-4.1,4.2c0,5.2-4.2,9.4-9.4,9.4c-2.3-0.1-4.2,1.6-4.4,3.9c-0.1,2.3,1.6,4.2,3.9,4.4
		c0.2,0,0.3,0,0.5,0c9.7,0,17.6-7.9,17.7-17.6c0-2.3-1.8-4.1-4.1-4.2C86.5,149.9,86.4,149.9,86.4,149.9L86.4,149.9z M113.6,149.9
		c-2.3,0-4.1,1.8-4.2,4.1c0,0,0,0.1,0,0.1c0,9.7,7.9,17.6,17.7,17.6c2.3,0.1,4.2-1.6,4.4-3.9c0.1-2.3-1.6-4.2-3.9-4.4
		c-0.2,0-0.3,0-0.5,0c-5.2,0-9.4-4.1-9.4-9.3c0,0,0-0.1,0-0.1C117.7,151.8,115.9,150,113.6,149.9L113.6,149.9z"/>
</g>
</svg>
