<?xml version="1.0" encoding="utf-8"?>
<!-- Generator: Adobe Illustrator 25.4.1, SVG Export Plug-In . SVG Version: 6.00 Build 0)  -->
<svg version="1.1" id="Layer_1" xmlns="http://www.w3.org/2000/svg" xmlns:xlink="http://www.w3.org/1999/xlink" x="0px" y="0px"
	 viewBox="0 0 200 200" style="enable-background:new 0 0 200 200;" xml:space="preserve">
<style type="text/css">
	.st0{fill:#FFAF99;}
	.st1{fill:#E79F8A;}
	.st2{fill:none;stroke:#373449;stroke-width:8;stroke-linecap:round;stroke-linejoin:round;}
	.st3{fill:#F6C6B9;}
	.st4{fill:none;stroke:#373449;stroke-width:5;stroke-linecap:round;stroke-linejoin:round;}
	.st5{fill:#FFCBBD;}
	.st6{fill:#FF8E6F;}
</style>
<path class="st0" d="M56.6,81.6c-20.8,2-30.2,28.7-27,44.9c8.2,40.9,46.3,66.2,116.8,62.9c15.5-0.7,16.8-11.1,18-27
	c1.4-18-5-35.9-18-53.9c-27,0-35.9,0-35.9-18s31.7-18,31.7-18v-27h-22.7c-25.8,0-45,29.2-44.9,53.9C73.1,95.8,77.3,79.6,56.6,81.6
	L56.6,81.6z"/>
<path class="st1" d="M44.6,86V41.1h26.8v-18h18V5.2h35.9v40.5C101,47.5,75.7,72.1,74.5,99.4C78,78.4,52.7,79.2,44.6,86z"/>
<path class="st2" d="M32.2,135.1c4.7-6.7,43.4-6.2,42.2-35.6"/>
<path class="st1" d="M129,74.2c11.9-2.8,23,23.6,18.5,34.8c-13.5-0.2-32.9,0.5-35.4-8.7C109.6,91.1,107.8,79.2,129,74.2L129,74.2z"
	/>
<path class="st3" d="M89.3,8.8V27H71.2c-1.8,16.2-12.9,17.8-26.7,17.9v37.4c1.8-1.5,1.1-2.2,4.2-2.9C47.7,67,60.6,38.4,76.6,36
	c0,0,32.5-24,44.9-26.3l3.8-0.9L89.3,8.8z M72.8,92.1c0.9,1.6,1.7,3.5,1.9,5.8c0.2-1.6,0.7-3.1,1.1-4.7
	C74.9,92.7,73.8,92.4,72.8,92.1z"/>
<path class="st2" d="M87.4,24.2c16.1-4.3,32.9,4.7,38,20.6"/>
<path class="st2" d="M88.1,23.2v18.1"/>
<path class="st4" d="M69.6,83.8c-11.5-11.9-11.4-29.5,0.2-41.3"/>
<path class="st5" d="M78.5,101.9c9.4-35.4,34-49.4,59.1-52.8h-14.3c-19.7,0-36.3,15-42.6,34.1 M56.5,81.5
	c-20.8,2-30.2,28.8-26.9,45.1c8,40.3,68.7,69.9,115.4,57.5c-57.5,6.7-94.7-26.2-100.8-57.5c-3-14.9,4.6-38.7,22-44
	C63,81.6,59.7,81.2,56.5,81.5z"/>
<path class="st6" d="M129.3,45.8v26.9c0,0-32.5-0.1-32.5,17.9s7.1,17.9,34.1,17.9c13,18,21.2,36.4,21.1,57.2
	c-0.1,20.8-37,18.7-52.8,18.7c-1.2,0.1-2.4,0-3.6,0c5.5,0.1,25.1,5.5,31.1,5.2c27.1,4.8,36.4-11.1,37.7-26.9
	c1.4-18-5.2-36.2-18.1-54.2c-27,0-36,0.1-36-17.9c0-18,31.9-17.9,31.9-17.9V45.8L129.3,45.8z"/>
<path class="st2" d="M56.6,81.6c-20.8,2-30.2,28.7-27,44.9c8.2,40.9,46.3,66.2,116.8,62.9c15.5-0.7,16.8-11.1,18-27
	c1.4-18-4.8-35.5-17.8-53.4c-27,0-36.1-0.5-36.1-18.5c0-18,31.7-18,31.7-18v-27h-22.7c-25.8,0-45,29.2-44.9,53.9
	C73.1,95.8,77.3,79.6,56.6,81.6L56.6,81.6z"/>
<path class="st2" d="M44.6,86V41.1h26.8v-18h18V5.2h35.9v40.5C101,47.5,75.7,72.1,74.5,99.4C78,78.4,52.7,79.2,44.6,86z"/>
<path class="st6" d="M127.8,74.1c-1.3,0.3-2.2,0.8-3.3,1.1c9.3,4.7,16.5,21.2,12.9,30.6c3.2,0.1,6.2,0.2,9.1,0.3
	C151,94.9,139.8,71.3,127.8,74.1z"/>
<path class="st2" d="M129,74.2c11.9-2.8,23,23.6,18.5,34.8c-13.5-0.2-32.9,0.5-35.4-8.7C109.6,91.1,107.8,79.2,129,74.2L129,74.2z"
	/>
</svg>
