<?xml version="1.0" encoding="utf-8"?>
<!-- Generator: Adobe Illustrator 25.4.1, SVG Export Plug-In . SVG Version: 6.00 Build 0)  -->
<svg version="1.1" id="Layer_1" xmlns="http://www.w3.org/2000/svg" xmlns:xlink="http://www.w3.org/1999/xlink" x="0px" y="0px"
	 viewBox="0 0 200 200" style="enable-background:new 0 0 200 200;" xml:space="preserve">
<style type="text/css">
	.st0{fill:#FF8585;}
	.st1{fill:#FF7070;}
	.st2{fill:#F2F2F2;}
	.st3{fill:#DEDEDE;}
	.st4{fill:#CECECE;}
</style>
<path class="st0" d="M55.7,0.1l-39.8,59C7.4,71,4.2,86,7.3,100.4l5.7,27.4c0.9,4.2,1.3,8.5,1.3,12.8v59.5h18.4l7.6-5.9l11,5.9h18.9
	l3.4-5.9l12.4,5.9h34.4l-5.1-85.6c-0.2-2.6,1-5.2,3.1-6.7l66-49.6c10-7.5,15.9-19.3,15.9-31.9V0.1h-20.9l-32.9,5.9l-14.3-5.9H55.7z"
	/>
<path class="st1" d="M188.5,0.1v26.2c0,12.5-5.9,24.3-15.9,31.9l-66,49.6c-2.1,1.6-3.3,4.1-3.1,6.7l5.1,85.6h11.7l-5.1-85.6
	c-0.2-2.6,1-5.2,3.1-6.7l66-49.6c10-7.5,15.9-19.3,15.9-31.9V0.1H188.5z"/>
<path class="st2" d="M179.3,0.1c-25.5,20.8-48,34.5-61.4,40.7c-14.5,6.7-29.6,15.6-38.1,29.6c-6.5,10.7-11.4,23.8-26.5,23
	c-10-0.6-18.7-8.7-20.3-18.8c-1-6.5,1.3-13.1,5.6-18c4.6-5.4,11.2-6.3,17.6-9C71.8,40.8,84.5,31,97.9,20.6
	c9.5-7.3,23.2-16.1,34.2-20.6H179.3z"/>
<path class="st3" d="M167.6,0.1c-25.5,20.8-48,34.5-61.4,40.7C91.6,47.5,76.6,56.4,68,70.4c-5.4,8.8-9.6,19.2-19.4,22.2
	c1.5,0.4,3,0.7,4.6,0.8c15.1,0.8,20-12.3,26.5-23c8.5-14,23.6-22.9,38.1-29.6c13.4-6.2,36-19.9,61.4-40.7H167.6z M70.2,200.1
	c0-5.2-0.4-15.8-1.7-24.5c-4.4-28.8-15.7-40.3-9.4-50.4c3.8-6.2,13-9.7,18.9-7.3c5.4,2.2,7.1,9.1,7.8,11.9
	c2.8,11.2-1.8,19.2-4.1,28.4c-2.1,8.7-2.2,24.6,4.3,41.9H70.2z"/>
<path class="st4" d="M81.7,158.1c2.3-9.2,6.9-17.2,4.1-28.4c-0.7-2.8-2.5-9.6-7.8-11.9c-2.1-0.9-4.7-1-7.3-0.5
	c0.5,0.1,1,0.3,1.4,0.5c5.4,2.2,7.1,9.1,7.8,11.9c2.8,11.2-1.8,19.2-4.1,28.4c-2.1,8.7-2.2,24.6,4.3,41.9H86
	C79.5,182.8,79.5,166.8,81.7,158.1z"/>
<path class="st2" d="M32.7,200.1c2.4-13.1,3-26.8,2.2-34.1c-0.8-6.7-1.8-9.6-4.4-27c-1.6-10.8-2.2-17,0.5-24
	c1.3-3.1,3.4-8.6,8.3-10.3c5.4-2,7.7,2.8,16,2.2c7.3-0.5,9.8-4.4,14.8-2.6c0.2,0.1,4.5,1.7,5.6,5.4c1.5,5.1-4.4,10.4-8.3,15.1
	c-7.1,8.4-9.4,16.3-13.8,31.8c-2.4,8.4-4.8,25.3-2.4,43.6H32.7z"/>
<path class="st3" d="M49.5,106.8c0.6,0,1.1-0.1,1.6-0.2c-5.1-0.8-7.4-3.6-11.8-2c-0.1,0-0.2,0.1-0.3,0.1
	C41.7,105.6,44.6,107.2,49.5,106.8z M75.8,109.6c-1.1-3.7-5.3-5.3-5.6-5.4c-2.1-0.8-3.8-0.5-5.6,0.1c1,0.4,4.4,2.1,5.4,5.3
	c1.5,5.1-4.4,10.4-8.3,15.1c-7.1,8.4-9.4,16.3-13.8,31.8c-2.4,8.4-4.8,25.3-2.4,43.6h5.9c-2.4-18.2-0.1-35.2,2.4-43.6
	c4.5-15.5,6.7-23.4,13.8-31.8C71.4,120.1,77.2,114.7,75.8,109.6z"/>
</svg>
