<?xml version="1.0" encoding="utf-8"?>
<!-- Generator: Adobe Illustrator 25.4.1, SVG Export Plug-In . SVG Version: 6.00 Build 0)  -->
<svg version="1.1" id="Layer_1" xmlns="http://www.w3.org/2000/svg" xmlns:xlink="http://www.w3.org/1999/xlink" x="0px" y="0px"
	 viewBox="0 0 200 200" style="enable-background:new 0 0 200 200;" xml:space="preserve">
<style type="text/css">
	.st0{fill:#FF6D00;}
	.st1{fill:#AB0738;}
	.st2{fill:#32313C;}
	.st3{fill:#231F20;}
	.st4{fill:#EDB29F;}
</style>
<circle class="st0" cx="48.3" cy="96.5" r="46.7"/>
<circle class="st1" cx="86.5" cy="77.1" r="46.7"/>
<circle class="st2" cx="89" cy="107.2" r="7.1"/>
<path class="st3" d="M89,115.7c-4.7,0-8.5-3.8-8.5-8.5c0-4.7,3.8-8.5,8.5-8.5c4.7,0,8.5,3.8,8.5,8.5S93.7,115.7,89,115.7L89,115.7z
	 M89,101.5c-3.1,0-5.6,2.5-5.6,5.6s2.5,5.6,5.6,5.6c3.1,0,5.6-2.5,5.6-5.6S92.1,101.5,89,101.5z"/>
<path class="st4" d="M92.4,161.6l9.4,5.5l9.6-0.5l1.9,0.1l-15-7.9L87,156.9l-14.6-0.6l-7.4,0.1l-0.5-2.5l1.9-7.5l1.1-6.4l5.1-5.9
	l2-2.4l2.4,0.7l5.2,1.1l6,1h4.6l4.2,1.4l2.2,0.9l3.7-4.1l4.7-8.6l2.8-6.4l-2.6-8.3l-4.5-3.3l-6.8-1l-5.9,1.4l-5.3,5.3l-1.3,3.6
	l-2,0.1l-3.7-5.9l-6.5-3.4l-3.9-2.6L50.8,113l-3.2,14.8l6.5,5l2.4,3.2l-3.7,10.9l-1.1,12.5l1.6,7.1l12.4-0.6l16.4-3L92.4,161.6z
	 M24.7,57.9l13.4-6.7l8.2-6.5l10.2-8L67,31.6l2.9,0.1l-0.3,1.4l-6.2,8.8l-3.1,9.4l-2.9,2.1l-3.4-0.6l-2.6-2.1l-4.4,4.4l-7.9,7.5
	L24.7,57.9z"/>
<path class="st2" d="M70.4,107.6c-2.4-0.4-4.9-0.1-7.2,1c-4.9,2.4-6.2,7.4-6.4,8.2c-0.1,0.6-1.2,5.3,1.1,8.8
	c0.8,1.2,3.6,4.6,2.7,3.4l-1.4,2.2l-2.3,3.5l-4-1.7l-0.8-16.7l6.8-12.3l7.7-1.6l2.8,1.3l3.8,2.8l3.7,2.7l2.5,1.8
	c0.2,0.4,0.4,1,0.7,1.8c0,0,0.5,1.9,0.5,3.7c-0.1,4.2-4.7,8.3-4.6,8.3l0.2-0.1l-0.5-3.4c0.6-0.6,2.5-2.4,2.7-5.2
	c0.4-4.4-3.5-7.2-4.1-7.6c-0.7-0.5-1.5-0.9-2.4-1.2L70.4,107.6L70.4,107.6z"/>
<path class="st4" d="M143.1,66l2.9,11.4l14.2-3.8l5.6,0.3l5.2,1.4l4.3,2.2l5.3-2.4l4.3-4.7l8.8-3.4l3.5-1.7l0.3-1.8
	c0,0-5-0.6-5.5-0.6s-10.6-0.8-10.6-0.8l-16.5,2.9l-16.7,1.4L143.1,66L143.1,66z"/>
<path class="st2" d="M145.8,66.4l1.3,10l-9,2.3l-14.7,0.2l-13.2-3.4l-8.6,1.3l-17.6,4.2l-6.1,4.4l-35.4,0.4l1.2-2.2l-16.7-0.9
	L15.5,80l-6.1-4.4l-0.5-7.3l3.5-3.3l15.1-8l13.2,5l-2.6,2.9l8.5-1.1l22.6-0.2l18-3.3l19.1-1.1l15.9,4L145.8,66.4z"/>
<path class="st1" d="M59.8,130c-0.6-0.1-3.1-0.2-3.9,0.5c-0.8,0.7-1.7,2.3-1.7,2.3s-8.8-7.3-8.9-7.6c-0.1-0.4-1.4-6-1.4-6l-3.1-6.5
	l-2.5-12L41,87.4l2.6-3.9c0.7-3.2,2.3-7.6,5.5-11.9c2.1-2.7,5.6-7.2,10.7-7.6c0.4,0,0.7,0,0.9,0c0.2,2.7,0.9,5.4,1.9,8
	c1,2.4,2.6,6.2,6.5,9c1.4,1,5.2,3.7,8.6,2.4c0.9-0.4,1.6-0.9,2.1-1.4l-7.3,7.7l-11.8,0.6L59,94.5l11.7,10.5c-1.5-0.2-3-0.1-4.4,0.2
	c-1,0.2-7.9,1.7-10.7,8.3c-0.2,0.5-2.6,6.4,0.5,12.1C57.2,127.8,58.7,129.2,59.8,130z"/>
<path class="st3" d="M43.3,119.1c-0.5,0-1-0.2-1.2-0.7c-3.4-5.3-5.2-11.4-5.2-17.7c0-5.5,1.4-11,4.1-15.8c-7-0.2-25.2-1.2-30.1-5.6
	c-6.2-5.7-3.4-11.5-3.3-11.7c0.3-0.6,1.4-3,3.2-3.4c0.6-0.2,3.4-1.8,5.5-3c2.1-1.2,4.3-2.4,5.8-3.2l1.8-0.9
	c4.3-2.2,14.5-7.3,16.5-9.2C43,45.4,50,39.5,54,37.1c4.1-2.4,11-6.2,12.3-6.8c1.5-0.8,3.5-0.6,4.5,0.6c0.7,0.9,0.7,2.1,0,3.1
	l-0.5,0.6c-1.4,1.8-5.7,7.2-6.7,9.7c-0.4,1-0.7,2.2-1,3.3c-0.6,2.4-1.2,4.6-2.8,5.9c-2.2,1.9-4.6,2-6.6,0.4c-0.9-0.7-2-0.8-2.6-0.2
	c-1.1,1.1-12.4,12.5-12.4,12.5l-2.1-2.1c0,0,11.3-11.4,12.5-12.5c1.7-1.7,4.4-1.7,6.4,0c0.6,0.5,1.5,0.9,2.9-0.4
	c0.8-0.7,1.3-2.6,1.8-4.4c0.3-1.2,0.7-2.5,1.1-3.6c1-2.6,4.6-7.2,7.1-10.4c-0.1,0-0.2,0.1-0.3,0.1c-1.2,0.6-8.3,4.5-12.2,6.8
	c-3.8,2.2-10.6,8-13,10.3c-2,2-9.5,5.8-17.3,9.7l-1.8,0.9c-1.5,0.8-3.7,2-5.7,3.2c-3.7,2.1-5.4,3-6.2,3.3c-0.3,0.1-0.9,1-1.3,1.8
	c-0.1,0.2-1.9,4.2,2.6,8.3c4.1,3.8,23.6,4.8,30.7,4.9c0.8,0,1.5,0.7,1.4,1.5c0,0.3-0.1,0.6-0.2,0.8c-3.3,4.9-5,10.6-5,16.4
	c0,5.7,1.6,11.3,4.8,16.1c0.4,0.7,0.2,1.6-0.4,2C43.9,119,43.6,119.1,43.3,119.1L43.3,119.1z M109.7,168.3c-1.8,0-3.6,0-5.1-0.1
	c-3.2-0.1-6.7-2.1-9.5-3.7c-1.2-0.7-2.5-1.4-3-1.5c-0.8-0.1-5,0.8-8.7,1.7c-4.8,1.1-10.9,2.4-15.6,3c-9.1,1.1-14.6,0.3-14.8,0.3
	c-0.6-0.1-1.1-0.5-1.2-1.1c-3.6-14.2-0.2-29.3,9.1-40.6c0.5-0.6,1.5-0.7,2.1-0.1c0.6,0.5,0.7,1.4,0.2,2c-8.5,10.3-11.7,24-8.7,37
	c1.9,0.2,6.5,0.4,13.1-0.4c4.6-0.5,10.5-1.9,15.3-2.9c6.2-1.4,8.7-1.9,9.9-1.7c1,0.2,2.2,0.9,3.9,1.8c2.4,1.4,5.6,3.2,8.1,3.3
	c1.5,0.1,3.3,0.1,5,0.1h0c-5.7-2.5-13.7-5.9-15.8-6.6c-2.4-0.7-19.3-1-30-1c-0.8,0-1.5-0.7-1.5-1.5s0.7-1.5,1.5-1.5
	c2.8,0,27.2,0,30.9,1.1c3.6,1.1,21.5,9.1,22.3,9.4c0.7,0.3,1.1,1.2,0.7,1.9c-0.2,0.5-0.7,0.9-1.3,0.9
	C116.3,168.2,113.1,168.3,109.7,168.3z"/>
<path class="st3" d="M56.9,135.6c-0.1,0-0.3,0-0.4-0.1c-8.4-2.4-14.3-9.8-14.9-18.5c0-0.8,0.6-1.5,1.4-1.5c0,0,0,0,0,0
	c0.8-0.1,1.5,0.6,1.5,1.4c0.5,7.5,5.6,13.8,12.7,15.9c0.8,0.2,1.2,1,1,1.8C58.2,135.2,57.6,135.6,56.9,135.6z M83.4,120.9
	c-0.7,0-1.4-0.6-1.5-1.3c0,0-0.3-2.7-2.2-5.5c-0.9-1.4-4.7-4-8.3-6.5c-3.9-2.7-8-5.5-10.5-8.1c-2.1-2.1-3.1-4.2-3-6.3
	c0.1-2.4,1.7-3.8,1.9-4c0.4-0.3,1-0.4,1.5-0.2c6.7,2.6,14.2-0.7,16.8-7.4c0.1-0.2,0.1-0.3,0.2-0.5c0.2-0.5,0.7-0.9,1.2-1
	c0.1,0,5.8-0.6,13-1.9c2.8-0.5,4.9-1.3,6.9-2.2c3.2-1.3,6.2-2.4,10.9-2.1c2.5,0.2,5,0.9,7.7,1.7c5.3,1.5,11.2,3.3,19.9,1.6
	c4-0.8,8-1.8,11.9-2.8c7.9-2,13.7-3.5,17.6-2.2c3.5,1.2,4.7,2.1,5.4,2.7c0.3,0.2,0.3,0.2,0.4,0.3l0.5,0.1c1.4,0.3,4,0.9,7.3-3
	c4.4-5.2,9.7-6.6,13.8-7.2c0.7-0.1,1.2-0.3,1.4-0.6c-2.5-0.5-9.2-1.7-17.3-0.6c-1.9,0.3-4,0.6-6.3,1c-10.7,1.8-25.3,4.3-40.7,1.4
	c-7.3-1.4-11.5-2.6-14.5-3.4c-4.6-1.3-6.9-2-15.3-2c-7.8,0-18.4,1.5-27.8,2.8c-7.5,1-14,2-17.9,2l-3.4,0c-7.1,0-13.8-0.1-23,1.7
	c-7.5,1.5-10.6,0.6-10.9,0.5c-0.7-0.3-1.1-1.2-0.8-1.9c0.3-0.7,1-1,1.7-0.9c0.1,0,2.8,0.8,9.5-0.5c9.4-1.9,16.3-1.8,23.6-1.8l3.4,0
	c3.7,0,10.1-0.9,17.5-1.9c9.5-1.3,20.2-2.8,28.2-2.8c8.7,0,11.3,0.7,16.1,2.1c3,0.8,7,2,14.2,3.4c14.9,2.9,29.2,0.4,39.7-1.4
	c2.3-0.4,4.5-0.8,6.4-1c10.9-1.5,19.2,0.8,19.5,0.9c0.4,0.1,0.8,0.4,1,0.9c0.1,0.2,0.6,1.6-0.2,3.1c-0.6,1.1-1.8,1.8-3.5,2.1
	c-3.8,0.6-8.2,1.8-12,6.3c-4.4,5.2-8.6,4.3-10.1,3.9l-0.3-0.1c-0.8-0.2-1.3-0.5-1.7-0.9c-0.6-0.5-1.4-1.2-4.5-2.2
	c-3.1-1-8.8,0.4-15.9,2.2c-3.6,0.9-7.7,1.9-12,2.8c-9.4,1.9-16-0.1-21.3-1.6c-2.6-0.8-4.8-1.4-7.1-1.6c-4-0.3-6.6,0.7-9.6,1.9
	C98.4,79.5,96,80.5,93,81c-4.1,0.7-8.2,1.4-12.3,1.8c-3.1,7.6-11.6,11.6-19.5,9.2c-0.2,0.4-0.4,0.8-0.4,1.3c0,1.2,0.7,2.6,2.2,4.1
	c2.4,2.4,6.5,5.2,10.1,7.8c4.2,2.9,7.8,5.4,9,7.2c2.3,3.4,2.7,6.7,2.7,6.9c0.1,0.8-0.5,1.5-1.3,1.6
	C83.5,120.9,83.5,120.9,83.4,120.9z"/>
<path class="st2" d="M83.6,118.1c0.7,0.4,1.8,0.9,3.2,1c2,0.2,3.4-0.5,8.3-2.7c4-1.8,4.8-2.1,6.2-2.2c1.1-0.1,3.1-0.2,5,0.8
	c0.8,0.5,1.9,1.6,4,3.9l-2.1-7.4l-4.3-5l-8.8-1.5l-6.1,3l-4.1,4.3C84.9,112.3,83.6,118.1,83.6,118.1z"/>
<path class="st3" d="M64.9,158.7l-2.9-0.5c0.9-4.7,1.7-7.6,2.2-8.8c0.3-0.7,0.6-3,0.7-4.6c0.2-1.6,0.3-2.9,0.5-3.7
	c0.4-1.2,2.1-3.3,5-6.6c1.3-1.5,2.5-2.9,3-3.6c1-1.5,0.9-7.2,0.3-9.2c-0.2-0.8,0.2-1.6,1-1.8c0.8-0.2,1.6,0.2,1.8,0.9
	c0.7,2.1,1.2,9-0.7,11.7c-0.6,0.9-1.8,2.3-3.2,3.9c-1.5,1.8-4.1,4.8-4.4,5.6c-0.2,0.5-0.3,1.9-0.4,3.2c-0.3,2.6-0.5,4.5-1,5.6
	C66.8,151,66.2,152.6,64.9,158.7z M98.8,138.3c-0.8,0-1.8-0.3-2.8-1.5l-1.1-1.3c-0.8-0.9-1.7-2-2.5-3c-1.5-1.9-2.7-4.7-1-6.4
	c0.6-0.5,1.5-0.5,2.1,0.1c0.5,0.5,0.5,1.4,0,1.9c-0.1,0.3,0.2,1.3,1.2,2.5c0.8,0.9,1.7,2,2.4,2.9l1.1,1.3c0.4,0.5,0.5,0.4,0.6,0.4
	c0.3-0.1,0.3-0.1,0.6-0.4c0.2-0.1,0.4-0.3,0.7-0.6c1-1.1,8.3-15.2,8.8-16.6l0-0.3c0.2-4.3-3.2-7.8-3.4-7.9c-2.7-2.7-7-3.9-10.8-3.1
	c-4.1,0.9-6.9,3.8-8.1,6c-0.1,0.1-1.4,2.3-1.7,6.5c-0.1,0.8-0.8,1.4-1.6,1.3c-0.6-0.1-1.2-0.5-1.3-1.1l-0.4-1.8
	c-0.1-0.7,0.2-1.3,0.8-1.6c0.6-3.1,1.7-4.7,1.7-4.8c1.5-2.8,5-6.3,10-7.4c4.9-1,10.1,0.5,13.5,3.9c0.5,0.5,4.5,4.7,4.2,10.2l0,0.6
	c-0.1,1.2-8.6,17.5-9.9,18.5c-0.3,0.2-0.5,0.3-0.6,0.5c-0.5,0.4-1,0.7-1.6,0.9C99.4,138.3,99.1,138.3,98.8,138.3z"/>
<path class="st3" d="M96.2,136.4c-0.3,0-0.6-0.1-0.9-0.3c-0.8-0.6-4.3-0.6-5.5-0.6c-0.7,0-1.3,0-2,0.1c-2.2,0.2-4.5,0.2-6.7-0.1
	c-5-0.6-6.8-3.3-6.9-3.6c-0.4-0.7-0.2-1.6,0.5-2c0.7-0.4,1.6-0.2,2,0.5c0.1,0.1,1.2,1.8,4.8,2.2c2.9,0.3,4.5,0.2,6.1,0.1
	c3.7-0.3,7.7-0.3,9.6,1.1c0.6,0.5,0.7,1.4,0.2,2.1C97.1,136.2,96.7,136.4,96.2,136.4z M160.9,168.2H18.8c-0.8,0-1.5-0.7-1.5-1.5
	s0.7-1.5,1.5-1.5h142.1c0.8,0,1.5,0.7,1.5,1.5S161.7,168.2,160.9,168.2z"/>
</svg>
