<svg xmlns="http://www.w3.org/2000/svg" enable-background="new 0 0 512 512" viewBox="0 0 512 512"><polygon fill="#f7c8a9" points="345 268 307 284 292.9 284 292.9 201.1 307 206 345 206 357 201.1 357 268"/><polygon fill="#ef937e" points="326 206 307 206 293 201.1 293 284 307 284 326 276"/><path fill="#f7c8a9" d="M86.5,228L31,173v-15.9c0-10.6-4.9-20.6-13.3-27.1l0,0c-5.2-4-12.7-0.3-12.7,6.2V173
			l67.3,83L186,268v-40H86.5z"/><polygon fill="#ef937e" points="186 228 186 268 142.3 263.4 137.8 228"/><path fill="#ebeadf" d="M307,312.2h-63.8c-46.5,0-84.2-37.7-84.2-84.2v0l94-41l54,19V312.2z"/><path fill="#993e29" d="M250.3,159h-22.8c-19.6,0-35.5-15.9-35.5-35.5v0c0-16.1,13.1-29.2,29.2-29.2h0
			c16.1,0,29.2,13.1,29.2,29.2V159z"/><rect width="10" height="29.7" x="203" y="102.3" fill="#db3328" transform="rotate(55.867 208.057 117.155)"/><path fill="#b1614a" d="M179.6,108.8h-11.1c-16.9,0-30.6,13.7-30.6,30.6V187h72.4v-47.5
			C210.3,122.5,196.5,108.8,179.6,108.8z"/><path fill="#ef937e" d="M210.3,187l-72.4-28l13.7,39.7l27.1,3.6l15.3,25.8h0c12.1,0,23.1-6.8,28.5-17.6l2.2-4.5
			L210.3,187z"/><path fill="#db3328" d="M376,38.5L346,72h30l78.2,63.5L398,172h0c-14.6,0-28.6,6.3-38.2,17.3L345,206v62l26.5,209
			l33.5,25v-25V248l84-66.7c11.4-9,18-22.8,18-37.3v0c0-16.7-8.8-32.3-23.2-40.9L376,38.5z"/><polygon fill="#b5100b" points="376 38.5 376 72 407.5 97.6 424.4 67.5"/><path fill="#f7c8a9" d="M408.6,58l-15.2,28.1L345,142.3l-55.8,62.9c-10.2,11.5-29.2,7.2-33.3-7.7L253,187l77.7-62
			L376,72l9.4-24.6c2.8-7.4,11.6-10.5,18.4-6.5l0,0C409.8,44.4,411.9,52,408.6,58z"/><polygon fill="#b5100b" points="454.2 135.5 473.1 123.2 420.8 108.4"/><polygon fill="#b5100b" points="405 248 387.4 262 405 345"/><path fill="#f7c8a9" d="M159.5,196.6l-8,2.1c-6.9,1.8-13.7-3.4-13.7-10.6v-48.6h27.3l16.1,16.1v12.9
			C181.3,181.7,172.3,193.3,159.5,196.6z"/><rect width="10" height="10" x="147" y="155" fill="#b1614a"/><path fill="#f7c8a9" d="M328,507h77v-30h-33.5l-29.3,10.1C333.7,490,328,498,328,507L328,507z"/><rect width="512" height="10" y="502" fill="#db3328"/><path fill="#f7c8a9" d="M325.5,5L346,72h30V38.5l-24.6-23.2C344.4,8.7,335.1,5,325.5,5L325.5,5z"/></svg>