<svg xmlns="http://www.w3.org/2000/svg" enable-background="new 0 0 512 512" viewBox="0 0 512 512"><path fill="#13bd79" d="M254.349 397.5c-11.92 25.979-44.722 49.162-107.533 50.806-30.323.825-83.604-1.924-119.54 16.57-11.998 6.174-25.868-4.36-23.287-17.604 8.366-42.917 32.739-79.834 66.288-104.854C139.418 404.159 250.403 397.746 254.349 397.5zM507.33 447.285c2.586 13.243-11.283 23.789-23.28 17.614-35.974-18.519-89.286-15.768-119.621-16.593-62.891-1.644-95.693-24.746-107.613-50.806 0 0 113.861 7.81 184.234-55.164C474.54 367.422 498.948 404.359 507.33 447.285z"/><path fill="#ea4e4e" d="M449.106,148.482c-31.979,4.44-71.606,14.716-105.394,37.324c-6.002-29.596-18.99-56.644-33.296-79.088c34.563-32.438,75.981-51.645,97.824-60.281c8.547-3.379,18.11,0.995,21.259,9.629C436.372,74.906,446.928,109.419,449.106,148.482z"/><path d="M449.125,148.472c-4.554,0.651-9.326,1.41-14.152,2.278c-3.525-39.582-14.152-73.958-21.201-93.369c-1.627-4.392-4.663-7.808-8.458-9.814c1.03-0.38,2.006-0.759,2.928-1.139c8.567-3.362,18.11,1.03,21.255,9.652C436.383,74.894,446.902,109.433,449.125,148.472z" opacity=".08"/><path fill="#ea4e4e" d="M200.747,106.718c-14.305,22.444-27.295,49.491-33.214,79.088c-33.789-22.608-73.414-32.884-105.394-37.324c2.179-39.062,12.734-73.575,19.607-92.414c3.15-8.634,12.714-13.009,21.261-9.629C124.845,55.075,166.243,74.282,200.747,106.718z"/><path d="M200.737,106.722c-2.657,4.121-5.205,8.404-7.699,12.85C152.48,90.022,111.326,71.316,86.926,61.664c-2.169-0.868-4.392-1.41-6.615-1.573c0.488-1.41,0.922-2.765,1.41-4.012c3.199-8.621,12.742-13.013,21.309-9.652C124.827,55.049,166.252,74.298,200.737,106.722z" opacity=".08"/><path fill="#f96464" d="M447.627,336.17c-69.633,69.633-190.812,61.33-190.812,61.33s0-0.329-0.082-0.987c10.605-9.619,90.432-85.335,90.432-177.329c0-11.427-1.234-22.608-3.453-33.378c52.411-35.085,118.783-40.319,148.971-40.725c9.155-0.123,16.673,7.234,16.556,16.39C508.791,196.759,501.757,282.039,447.627,336.17z"/><path d="M509.256,161.486c-0.488,35.298-7.483,120.534-61.65,174.701c-66.259,66.259-179.256,61.921-189.992,61.379c39.365-1.627,115.491-11.603,165.267-61.379c54.167-54.167,61.161-139.403,61.65-174.701c0.108-7.266-4.609-13.393-11.116-15.616c7.374-0.488,13.881-0.759,19.249-0.813C501.828,144.948,509.364,152.322,509.256,161.486z" opacity=".08"/><path fill="#f96464" d="M255.267,396.513c-0.082,0.658-0.082,0.987-0.082,0.987s-121.179,8.303-190.812-61.33C10.242,282.039,3.208,196.759,2.759,161.47c-0.116-9.156,7.401-16.513,16.556-16.39c30.188,0.406,96.56,5.641,148.971,40.725c-2.22,10.77-3.452,21.95-3.452,33.378C164.834,311.342,244.908,387.141,255.267,396.513z"/><path d="M255.283,396.535c-0.109,0.651-0.109,0.976-0.109,0.976s-9.217,0.651-24.074,0.109c-25.158-26.08-78.783-90.55-78.783-165.971c0-11.386,1.247-22.556,3.47-33.346c-52.378-35.081-118.799-40.341-148.946-40.72c-1.247,0-2.494,0.109-3.741,0.38c1.573-7.428,8.242-13.013,16.212-12.905c30.201,0.434,96.568,5.639,149,40.775c-2.223,10.736-3.47,21.905-3.47,33.346C164.842,311.353,244.927,387.155,255.283,396.535z" opacity=".08"/><path fill="#fff" d="M37.365,211.249c-2.498-14.106-3.73-26.854-4.311-36.739c-0.258-4.392-3.972-7.744-8.369-7.607h0c-4.563,0.143-8.136,3.977-7.882,8.535c0.629,11.262,1.929,24.52,4.404,38.73c0.673,3.864,4.08,6.655,8.002,6.655h0.164C34.433,220.823,38.247,216.231,37.365,211.249z" opacity=".4"/><path fill="#f96464" d="M347.142,219.214c0,98.479-91.52,178.253-91.52,178.253s-91.52-79.774-91.52-178.253c0-76.553,55.303-141.803,79.929-167.063c6.346-6.51,16.835-6.51,23.181,0C291.839,77.411,347.142,142.661,347.142,219.214z"/><path d="M347.134,219.231c0,98.466-91.526,178.225-91.526,178.225s-3.307-2.874-8.73-8.296c22.827-22.773,82.796-90.224,82.796-169.929c0-76.561-55.306-141.843-79.976-167.056c-0.868-0.922-1.789-1.681-2.82-2.332c6.344-4.121,14.857-3.307,20.333,2.332C291.829,77.388,347.134,142.671,347.134,219.231z" opacity=".08"/><path fill="#13bd79" d="M254.349 397.5c-11.92 25.979-44.722 49.162-107.533 50.806-30.323.825-83.604-1.924-119.54 16.57-11.998 6.174-25.868-4.36-23.287-17.604 8.366-42.917 32.739-79.834 66.288-104.854C139.418 404.159 250.403 397.746 254.349 397.5zM507.33 447.285c2.586 13.243-11.283 23.789-23.28 17.614-35.974-18.519-89.286-15.768-119.621-16.593-62.891-1.644-95.693-24.746-107.613-50.806 0 0 113.861 7.81 184.234-55.164C474.54 367.422 498.948 404.359 507.33 447.285z"/><path d="M445.095,342.193c47.464-44.009,65.939-116.377,66.755-180.69c0.137-10.898-8.921-19.244-19.204-19.034c-10.976,0.148-25.187,0.882-41.136,2.976c-2.591-38.855-13.294-73.097-19.558-90.274c-3.653-10.005-14.726-15.086-24.67-11.162c-21.372,8.449-61.875,27.214-96.32,58.696c-15.222-23.474-31.497-41.727-41.88-52.378c-7.377-7.567-19.543-7.566-26.919,0c-10.391,10.659-26.68,28.928-41.91,52.423c-34.395-31.505-74.911-50.285-96.285-58.738c-9.928-3.926-21.017,1.142-24.675,11.161c-6.259,17.163-16.948,51.361-19.551,90.174c-15.646-2.021-29.585-2.732-40.391-2.877C8.718,142.29,0.017,150.899,0.15,161.504c0.816,64.342,19.281,136.485,66.495,180.441c-33.971,26.121-57.11,63.228-65.218,104.828c-3.008,15.42,13.148,27.576,27.044,20.425c34.907-17.965,85.733-15.386,118.412-16.282c53.839-1.41,93.236-19.59,108.694-49.992c9.583,18.877,36.127,48.093,108.779,49.992c32.615,0.885,83.422-1.753,118.497,16.304c13.898,7.151,30.048-5.032,27.039-20.434C501.812,405.395,478.829,368.393,445.095,342.193z M492.718,147.691c7.524-0.119,14.014,5.921,13.911,13.746c-0.433,34.12-7.231,119.269-60.847,172.887c-44.545,44.545-120.413,62.309-183.701,60.767c46.398-44.424,87.695-110.825,87.695-175.907c0-10.171-1.254-22.403-3.154-32.14C388.035,159.907,443.673,148.352,492.718,147.691z M409.202,48.865c7.152-2.831,15.182,0.807,17.845,8.096c6.189,16.97,16.801,50.836,19.303,89.204c-35.47,5.212-70.793,16.149-100.878,35.37c-5.879-26.342-17.386-51.495-31.684-74.385C347.755,75.856,388.026,57.237,409.202,48.865z M245.901,53.973c5.329-5.463,14.115-5.463,19.443,0c42.324,43.417,79.186,104.385,79.186,165.24c0,88-75.157,161.924-88.564,174.404c-13.006-12.009-88.521-85.575-88.521-174.433C167.446,157.678,202.093,98.91,245.901,53.973z M84.198,56.963c2.661-7.284,10.689-10.93,17.847-8.096c21.172,8.374,61.426,26.994,95.338,58.287c-14.06,22.413-25.721,48.075-31.519,73.974c-32.651-20.732-69.769-30.559-100.961-35.071C67.42,107.735,78.015,73.916,84.198,56.963z M5.371,161.437c-0.103-7.831,6.414-13.896,13.908-13.746c49.031,0.661,104.441,12.545,145.369,39.369c-14.862,77.52,29.527,155.033,84.606,208.037c-61.554,1.665-137.821-15.557-183.036-60.774C12.602,280.709,5.805,195.559,5.371,161.437z M146.743,445.697c-33.793,0.913-84.509-1.748-120.664,16.858c-10.2,5.247-21.663-3.824-19.528-14.783c7.894-40.492,30.445-76.629,63.598-101.986c46.898,40.801,118.849,55.978,179.86,54.521C234.823,427.895,197.538,444.366,146.743,445.697z M485.245,462.577c-36.651-18.866-90.093-16.052-120.748-16.88c-50.896-1.331-88.217-17.81-103.362-45.409c60.428,1.66,133.939-14.416,180.04-54.58c33.143,25.457,55.697,61.627,63.593,102.077C506.911,458.765,495.427,467.817,485.245,462.577z"/></svg>